<svg xmlns="http://www.w3.org/2000/svg">
  <symbol id="icon-fb-mobile">
    <svg enable-background="new 0 0 10 19" viewBox="0 0 10 19" xmlns="http://www.w3.org/2000/svg"><path d="m7.1 19h-5.1v-8.8h-2v-4.4h1.9c-.1-2 .2-3.4 1.1-4.4.8-.9 2-1.3 3.5-1.4h3.5v4.2h-2.8c-.1.2-.2.8-.2 1.6h3v4.4h-2.9zm-4-1h2.8v-8.9h2.9v-2.3h-2.9v-.5c0-1.4 0-2.6.7-3.1l.1-.1h2.1v-2.1h-2.3c-1.2.1-2 .4-2.6 1-.8.8-1 2.3-.8 4.2l.1.6h-2.1v2.3h2z"/></svg>
  </symbol>
  <symbol id="icon-fb">
    <svg enable-background="new 34.789 -4.709 13.518 27.75" height="27.75" viewBox="34.789 -4.709 13.518 27.75" width="13.518" xmlns="http://www.w3.org/2000/svg"><path d="m44.32 23.041h-6.816v-12.904h-2.715v-6.374h2.629c-.202-2.887.298-5 1.519-6.444 1.039-1.229 2.583-1.911 4.588-2.026l4.782-.001v6.15h-3.755c-.166.315-.251 1.093-.252 2.321h3.978v6.375h-3.958zm-5.316-1.5h3.816v-12.904h3.957v-3.374h-3.953l-.016-.734c-.044-2.04.002-3.784 1.007-4.46l.19-.127h2.801v-3.15h-3.239c-1.557.091-2.711.581-3.485 1.496-1.041 1.231-1.41 3.298-1.099 6.144l.092.832h-2.786v3.375h2.715z"/></svg>
  </symbol>
  <symbol id="icon-insta-mobile">
    <svg enable-background="new 0 0 16 16" viewBox="0 0 16 16" xmlns="http://www.w3.org/2000/svg"><g><path d="m11.8 1c1.8 0 3.2 1.4 3.2 3.2v7.7c0 1.7-1.4 3.1-3.1 3.1h-7.7c-1.8 0-3.2-1.4-3.2-3.2v-7.6c0-1.8 1.4-3.2 3.2-3.2zm0-1h-7.6c-2.3 0-4.2 1.9-4.2 4.2v7.7c0 2.2 1.9 4.1 4.2 4.1h7.7c2.3 0 4.2-1.9 4.2-4.2v-7.6c-.1-2.3-2-4.2-4.3-4.2z"/><path d="m8 4.9c1.7 0 3.1 1.4 3.1 3.1s-1.4 3.1-3.1 3.1-3.1-1.4-3.1-3.1 1.4-3.1 3.1-3.1m0-1c-2.3 0-4.1 1.8-4.1 4.1s1.8 4.1 4.1 4.1 4.1-1.8 4.1-4.1-1.8-4.1-4.1-4.1z"/><circle cx="12.3" cy="3.7" r=".9"/></g></svg>
  </symbol>
  <symbol id="icon-insta">
    <svg enable-background="new -3 -3 23 23" height="23" viewBox="-3 -3 23 23" width="23" xmlns="http://www.w3.org/2000/svg"><g><path d="m14.002-1.501c2.48 0 4.498 2.02 4.498 4.501v11c0 2.481-2.018 4.5-4.498 4.5h-10.992c-2.48 0-4.498-2.019-4.498-4.5v-11c0-2.481 2.018-4.5 4.498-4.5h10.992m0-1.5h-10.992c-3.3 0-5.997 2.699-5.997 6v11.001c0 3.298 2.697 5.999 5.997 5.999h10.995c3.296 0 5.995-2.701 5.995-6.001v-10.999c0-3.301-2.699-6-5.998-6z"/><path d="m8.506 4.078c2.44 0 4.429 1.985 4.429 4.428 0 2.44-1.989 4.43-4.429 4.43-2.443 0-4.428-1.989-4.428-4.43 0-2.443 1.985-4.428 4.428-4.428m0-1.5c-3.273 0-5.928 2.654-5.928 5.928s2.654 5.927 5.928 5.927 5.926-2.653 5.926-5.927-2.652-5.928-5.926-5.928z"/><circle cx="14.646" cy="2.379" r="1.341"/></g></svg>
  </symbol>
  <symbol id="icon-vk-mobile">
    <svg enable-background="new 0 0 22 12" viewBox="0 0 22 12" xmlns="http://www.w3.org/2000/svg"><path d="m17.6 12c-.3 0-.9-.1-1.5-.5-.5-.3-.9-.7-1.3-1.2-.3-.3-.9-.9-1.1-.9-.2.1-.4.7-.3 1.2 0 .1 0 .6-.3.9s-.8.4-.9.4h-1.4c-.7 0-3.2-.2-5.4-2.3-2.9-2.5-5.2-7.4-5.3-7.6-.1-.4-.2-.8.1-1.1s.8-.4 1-.4h3 .1c.1 0 .4.1.7.3s.4.5.5.6c0 0 .5 1.1 1.1 2 1 1.5 1.4 1.9 1.5 2 .1-.4.2-1.4.1-2.3 0-.4-.1-.8-.2-1-.1-.1-.3-.2-.5-.2l-.6-.5c0-.5.5-.9.9-1.1.5-.2 1.3-.3 2.3-.3h.5c.9 0 1.2.1 1.6.1 1.2.3 1.2 1.3 1.1 2.5v1.2.4c0 .3 0 .8.1 1 .2-.1.6-.5 1.5-1.9.6-.9 1-1.9 1.1-2.1.1-.3.4-.7 1.2-.7h3.1.3c.7 0 1.2.2 1.3.7.2.5.1 1.3-1.7 3.5-.3.3-.5.6-.7.9-.5.4-.9 1-.9 1.1s.5.5.9.9c1.1.9 1.9 1.7 2.2 2.3.4.6.3 1 .2 1.3-.3.7-1.2.7-1.4.8h-2.8zm-3.9-3.7c.7 0 1.2.6 1.8 1.2.4.4.7.8 1.1 1 .5.3 1 .3 1 .3h.1 2.8c.1 0 .3-.1.4-.1 0 0 0-.1-.1-.1-.3-.5-1-1.3-2-2.1-.9-.7-1.3-1.1-1.4-1.7 0-.6.4-1.1 1.2-2.1.2-.2.4-.5.7-.8 1.1-1.4 1.4-2 1.5-2.3-.1 0-.5 0-.5 0h-3.2c-.1 0-.2 0-.2 0 0 .4-.5 1.5-1.1 2.4-1.4 2.1-2 2.4-2.5 2.4-.1 0-.3 0-.4-.1-.7-.4-.7-1.4-.7-2.1 0-.1 0-.2 0-.3 0-.5 0-.9 0-1.3.1-1.3 0-1.3-.3-1.4s-.5-.1-1.4-.1h-.5c-.5 0-1 0-1.4.1.1.1.1.1.2.2.4.5.4 1.5.4 1.7.1 1.3 0 2.9-.7 3.3-.1 0-.2.1-.4.1-.6 0-1.3-.7-2.5-2.5-.6-1.1-1.1-2.2-1.1-2.2s0-.1-.1-.1-.2-.1-.2-.1h-2.9s0 0-.1 0c.4.9 2.5 5 4.8 7.2 2 1.9 4.3 2 4.7 2h1.4s.2 0 .2-.1c0 0 0 0 0-.1 0-.2 0-2 1.2-2.3z"/></svg>
  </symbol>
  <symbol id="icon-vk">
    <svg enable-background="new 3.007 11.628 30.004 15.761" height="15.761" viewBox="3.007 11.628 30.004 15.761" width="30.004" xmlns="http://www.w3.org/2000/svg"><path d="m26.945 27.388c-.386 0-1.17-.082-2.075-.632-.642-.385-1.223-.968-1.784-1.532-.438-.44-1.171-1.177-1.447-1.177-.268.075-.481.921-.476 1.569.004.113-.001.774-.468 1.213-.425.4-1.088.485-1.216.498l-1.926.007c-.967 0-4.358-.218-7.429-3.021-3.674-3.358-6.835-9.798-6.968-10.07-.197-.462-.248-1.066.152-1.482.392-.413 1.081-.472 1.359-.479l4.083-.024.115.008c.091.014.567.095.957.349.388.247.59.651.626.73.01.021.649 1.432 1.475 2.684 1.312 1.99 1.896 2.455 2.103 2.562.188-.417.277-1.7.187-2.871.001-.493-.101-1.098-.252-1.278-.112-.134-.426-.253-.778-.294l-.722-.691c-.096-.658.635-1.226 1.149-1.446.737-.316 1.792-.382 3.147-.382l.71.005c1.235.012 1.622.081 2.149.191 1.702.361 1.64 1.729 1.567 3.312-.021.464-.046 1.001-.046 1.621 0 .151-.005.312-.011.479-.012.38-.032 1.038.093 1.304.219-.145.852-.665 2.072-2.483.783-1.165 1.4-2.539 1.517-2.803l.001-.001c.182-.43.608-.941 1.613-.946l4.274-.024c.012-.003.172-.016.377-.016.98 0 1.597.287 1.832.854.269.65.169 1.657-2.354 4.605-.37.432-.697.804-.982 1.127-.598.678-1.216 1.379-1.237 1.595.053.169.662.665 1.252 1.145 1.53 1.247 2.528 2.264 3.033 3.073.522.759.429 1.33.258 1.677-.424.864-1.638.973-1.877.985l-3.79.047c-.055.006-.145.012-.263.012zm-5.307-4.84c.899 0 1.682.786 2.511 1.618.497.5 1.011 1.016 1.496 1.307.727.44 1.316.421 1.398.412l.103-.009 3.805-.047c.171-.012.411-.073.536-.136-.018-.039-.048-.094-.098-.167-.449-.718-1.388-1.659-2.686-2.718-1.184-.963-1.801-1.465-1.865-2.244-.066-.805.493-1.439 1.607-2.703.28-.318.604-.685.967-1.109 1.559-1.821 1.957-2.64 2.058-2.956-.17-.029-.648-.021-.678-.018l-4.361.028c-.191.001-.249.035-.249.036-.176.414-.812 1.812-1.644 3.05-1.895 2.82-2.785 3.2-3.407 3.201-.204 0-.396-.05-.569-.148-1.003-.569-.963-1.834-.934-2.757.005-.149.01-.295.01-.431 0-.646.025-1.207.048-1.689.076-1.68.016-1.692-.379-1.776-.409-.086-.705-.147-1.856-.159l-.693-.005c-.624 0-1.343.014-1.906.098.092.074.18.157.259.251.588.704.604 1.951.601 2.194.13 1.646.061 3.796-1.018 4.313-.191.092-.392.137-.597.137-.926 0-1.854-.885-3.425-3.267-.895-1.354-1.56-2.824-1.587-2.887-.011-.021-.054-.077-.075-.094-.083-.054-.233-.097-.32-.116l-4.001.024c-.021.001-.045.002-.07.005.591 1.189 3.426 6.592 6.519 9.419 2.74 2.502 5.826 2.629 6.417 2.629l1.851-.003c.046-.01.218-.062.269-.1-.019.018-.01-.053-.01-.097-.003-.265.012-2.595 1.578-3.034.126-.034.259-.052.395-.052z"/></svg>
  </symbol>
  <symbol id="icon-gift">
    <svg enable-background="new 0 0 55.5 60" viewBox="0 0 55.5 60" xmlns="http://www.w3.org/2000/svg"><path d="m52.3 12.2h-7c.5-.7.8-1.4 1.1-2.2.6-2 .4-4.1-.6-5.9s-2.6-3.1-4.6-3.7-4.1-.4-5.9.6c-3.6 2-6.2 6.1-7.6 9-1.4-2.9-4-7.1-7.6-9-3.8-2-8.5-.6-10.5 3.1-1.4 2.7-1.2 5.8.5 8.1h-7c-1.7 0-3.1 1.4-3.1 3.1v9.4c0 1.7 1.4 3.1 3.1 3.1h.9v26.1c0 3.3 2.7 6 6 6h35.5c3.3 0 6-2.7 6-6v-26.1h.8c1.7 0 3.1-1.4 3.1-3.1v-9.4c.1-1.7-1.3-3.1-3.1-3.1zm-15.8-9.2c1.3-.7 2.7-.8 4.1-.4 1.3.4 2.4 1.3 3.1 2.6s.8 2.7.4 4.1c-.4 1.2-1.1 2.2-2.2 2.9h-12.5c1.1-2.6 3.6-7.2 7.1-9.2zm-24.8 2.2c1.5-2.6 4.7-3.6 7.3-2.2 3.5 1.9 6 6.6 7.1 9.1h-12.6c-2.3-1.4-3.1-4.5-1.8-6.9zm14.8 22.6v13.7h-20.1v-13.7zm-20.1 26.1v-10h20.2v13.7h-16.6c-2 0-3.6-1.7-3.6-3.7zm39.1 3.7h-16.6v-13.7h20.2v10c0 2-1.6 3.7-3.6 3.7zm3.6-16.1h-20.2v-13.7h20.2zm4-16.8c0 .4-.3.7-.7.7h-2s0 0 0 0h-22.7s0 0 0 0h-22.5s0 0 0 0h-2c-.4 0-.7-.3-.7-.7v-9.4c0-.4.3-.7.7-.7h49.2c.4 0 .7.3.7.7z"/></svg>
  </symbol>
  <symbol id="icon-mail">
    <svg enable-background="new 0 0 17 13" viewBox="0 0 17 13" xmlns="http://www.w3.org/2000/svg"><path d="m15.6 11.6h-14.2v-5.8h-1.4v7.2h17v-7.2h-1.4zm-15.6-11.6v2.3l8.5 7.1 8.5-7.1v-2.3zm15.6 1.6-7.1 5.9-7.1-5.9v-.2h14.2z"/></svg>
  </symbol>
  <symbol id="icon-phone">
    <svg enable-background="new 0 0 20 20" viewBox="0 0 20 20" xmlns="http://www.w3.org/2000/svg"><path d="m17.9 9.4h-8.5v1.2h8.5l-2.1 2.1.9.9 3.1-3.1c.2-.2.2-.6 0-.9l-3.1-3.1-.9.9z"/><path d="m8.1 19.4v-6.2c0-.3-.3-.6-.6-.6h-3.1-1.3c0 .7.6 1.2 1.2 1.2h2.5v5h-3.7c-1 .1-1.8-.7-1.9-1.7 0-.1 0-.1 0-.2v-13.8c0-1 .8-1.8 1.7-1.8h.2 3.7v5h-2.4c-.7 0-1.2.6-1.2 1.2h4.4c.3 0 .6-.3.6-.6v-6.3c-.1-.3-.4-.6-.7-.6h-4.4c-1.6-.1-3 1.2-3.1 2.9v.2 13.7c-.1 1.7 1.2 3.1 2.9 3.1h.2 4.4c.3.1.6-.2.6-.5z"/></svg>
  </symbol>
  <symbol id="htmlacademy">
    <svg viewBox="0 0 60 60" xmlns="http://www.w3.org/2000/svg"><path d="m30.2 5h-.2l-19.7 2.1v36.2l19.7 11.7 19.7-11.7v-36.2l-19.5-2.1zm17 36.8-17.2 10.2-17.2-10.2v-14.8l17.1 10.2v1.8l-11.7-7v1.8l11.8 7.1v1.9l-11.8-7v1.8l11.8 7 11.9-7.1v-7.6l5.3-3.2zm-.1-17-4.7 2.8-2.2 1.3-10.3-6.1v1.8l8.8 5.3h-.1l-.2.1-1.3.7-7.3-4.3v1.8l5.8 3.4-1.4.9-4.3-2.6v1.8l2.9 1.7-2.9 1.7-17-10.1 17-10.2zm.1-1.8-17.3-10.2-17.1 10.2v-13.6l17.2-1.8 17.2 1.8z"/></svg>
  </symbol>
</svg>
